<svg width="50" height="50" viewBox="0 0 50 50" fill="none" xmlns="http://www.w3.org/2000/svg">
<circle opacity="0.8" cx="25" cy="25" r="24" fill="#46535E" stroke="#46535E" stroke-width="2"/>
<path d="M24.4 16.025C25.1333 16.025 25.7083 16.1083 26.125 16.275C26.5583 16.425 27 16.65 27.45 16.95C27.8167 17.1833 28.1 17.3 28.3 17.3C28.45 17.3 28.5667 17.2167 28.65 17.05C28.7333 16.8667 28.8 16.5833 28.85 16.2H29.425C29.3417 17.1667 29.3 18.8667 29.3 21.3H28.725C28.625 19.95 28.2333 18.8167 27.55 17.9C26.8833 16.9667 25.9083 16.5 24.625 16.5C23.725 16.5 22.9917 16.775 22.425 17.325C21.8583 17.8583 21.575 18.55 21.575 19.4C21.575 20.0333 21.7167 20.5833 22 21.05C22.3 21.5167 22.675 21.9167 23.125 22.25C23.575 22.5833 24.2167 23.0083 25.05 23.525L25.775 23.975C26.825 24.625 27.65 25.2 28.25 25.7C28.8667 26.1833 29.3583 26.7417 29.725 27.375C30.0917 28.0083 30.275 28.75 30.275 29.6C30.275 31.1167 29.775 32.2917 28.775 33.125C27.775 33.9417 26.5083 34.35 24.975 34.35C24.175 34.35 23.5167 34.2667 23 34.1C22.5 33.9333 22.0167 33.7083 21.55 33.425C21.1833 33.1917 20.9 33.075 20.7 33.075C20.55 33.075 20.4333 33.1667 20.35 33.35C20.2667 33.5167 20.2 33.7917 20.15 34.175H19.575C19.6417 33.2583 19.675 31.2583 19.675 28.175H20.25C20.3667 29.8583 20.7833 31.225 21.5 32.275C22.2167 33.325 23.3167 33.85 24.8 33.85C25.7 33.85 26.4667 33.575 27.1 33.025C27.7333 32.4583 28.05 31.625 28.05 30.525C28.05 29.5917 27.7333 28.8 27.1 28.15C26.4833 27.5 25.5 26.7667 24.15 25.95C23.1667 25.35 22.3667 24.8167 21.75 24.35C21.15 23.8833 20.6583 23.325 20.275 22.675C19.8917 22.0083 19.7 21.2333 19.7 20.35C19.7 18.95 20.15 17.8833 21.05 17.15C21.95 16.4 23.0667 16.025 24.4 16.025Z" fill="white"/>
</svg>
